<?xml version="1.0" encoding="UTF-8"?> <svg xmlns="http://www.w3.org/2000/svg" width="96.754" height="137.437" viewBox="0 0 96.754 137.437"><g id="Group_181" data-name="Group 181" transform="translate(-911.551 -11.883)"><path id="Path_34" data-name="Path 34" d="M719.79,362.825a2.2,2.2,0,1,1,2.2-2.2A2.2,2.2,0,0,1,719.79,362.825Z" transform="translate(222.406 -241.257)" fill="#feae47"></path><path id="Path_35" data-name="Path 35" d="M712.856,362.825a2.2,2.2,0,1,1,2.2-2.2A2.2,2.2,0,0,1,712.856,362.825Z" transform="translate(222.705 -241.257)" fill="#feae47"></path><g id="Group_180" data-name="Group 180"><path id="Path_29" data-name="Path 29" d="M776.145,248.394H696.333a8.48,8.48,0,0,0-8.471,8.47v79.813a8.48,8.48,0,0,0,8.471,8.47h79.812a8.481,8.481,0,0,0,8.471-8.47V256.864A8.48,8.48,0,0,0,776.145,248.394Zm7.021,88.283a7.029,7.029,0,0,1-7.021,7.021H696.332a7.03,7.03,0,0,1-7.021-7.021V256.864a7.03,7.03,0,0,1,7.021-7.022h79.813a7.03,7.03,0,0,1,7.021,7.022Z" transform="translate(223.688 -236.511)" fill="#feae47"></path><path id="Path_30" data-name="Path 30" d="M736.6,257.011A40.291,40.291,0,1,0,776.894,297.3,40.291,40.291,0,0,0,736.6,257.011Zm25.631,63.722a34.5,34.5,0,0,1-21.663,11.137l-.008-.033-.009-.035c-.416-1.936-2.394-11.94-.448-18.843,1.9-6.73,10.914-8.533,12.122-8.746a8.431,8.431,0,0,0,3.866.905,8.838,8.838,0,1,0-8.839-8.839c0,.242-.007.471-.013.69a5.678,5.678,0,0,0,.308,2.469c-.462.783-2.588,4.17-5.149,4.971a8.044,8.044,0,0,1-2.244.459c-.744,0-1.41-.183-1.41-2.4v-.019a58.1,58.1,0,0,1,.122-7.891l.048-.274c.352-2.011.545-3.119,2.336-4.621.6-.505,1.069-.917,1.444-1.247a6.389,6.389,0,0,1,1.854-1.342l.02-.008a7.435,7.435,0,0,0,2.209.317,8.839,8.839,0,1,0-8.839-8.84,7.721,7.721,0,0,0,1.445,4.844l0,0c.334,3.272-.871,4.241-1.67,4.883a5.232,5.232,0,0,0-.423.364c-.289.288-.4.32-.44.32-.167,0-.591-.47-1.039-.968l-.274-.3c-1.223-1.346-1.136-4.222-1.117-4.6l.006-.023a7.211,7.211,0,0,0,1.1-4.321,8.839,8.839,0,1,0-8.838,8.838,4.445,4.445,0,0,0,2.149-.4,10.269,10.269,0,0,1,3.336,2.23,6.694,6.694,0,0,1,2.684,4.83,49.141,49.141,0,0,1-.006,7.621v.031c0,2.451-.976,2.781-1.931,2.781a6.8,6.8,0,0,1-1.947-.362c-1.552-.485-3.471-2.456-5.406-5.552a7.921,7.921,0,0,0,.3-2.63,8.839,8.839,0,1,0-8.839,8.838,7.857,7.857,0,0,0,3.554-.75c.492.078,10.178,1.717,12.16,8.741,1.25,4.43.933,10.577-.942,18.269-.057.235-.1.4-.123.519a34.593,34.593,0,1,1,30.557-11.014Z" transform="translate(223.324 -236.883)" fill="#feae47"></path><path id="Path_31" data-name="Path 31" d="M698.779,383.814a8.643,8.643,0,0,1-5.1-1.529l-.457-.324v1.163l-3.8.4v-26.81l3.8-.364v10.274l.594-.357c.317-.191.67-.4,1.045-.588a8.911,8.911,0,0,1,3.988-.922,9.379,9.379,0,0,1,6.8,2.552,9.022,9.022,0,0,1,2.631,6.745,9.687,9.687,0,0,1-2.651,7.027A9.174,9.174,0,0,1,698.779,383.814Zm.282-15.516a5.775,5.775,0,0,0-4.294,1.571,6.105,6.105,0,0,0-1.55,4.451,5.945,5.945,0,0,0,1.594,4.281,5.549,5.549,0,0,0,4.282,1.677,5.008,5.008,0,0,0,3.942-1.681,6.511,6.511,0,0,0,1.539-4.506,5.757,5.757,0,0,0-1.56-4.164A5.163,5.163,0,0,0,699.061,368.3Z" transform="translate(223.621 -241.168)" fill="#feae47"></path><path id="Path_32" data-name="Path 32" d="M710.971,365.66l3.8-.3v18.287l-3.8.2Z" transform="translate(222.691 -241.556)" fill="#feae47"></path><path id="Path_33" data-name="Path 33" d="M717.676,365.661l3.8-.3V390.45l-3.8.426Z" transform="translate(222.402 -241.556)" fill="#feae47"></path><path id="Path_36" data-name="Path 36" d="M745.371,384.179a9.007,9.007,0,0,1-6.873-2.873,9.761,9.761,0,0,1-.139-13.234,9.532,9.532,0,0,1,14.007-.016,9.78,9.78,0,0,1-.139,13.251A8.991,8.991,0,0,1,745.371,384.179Zm-.008-15.684a5.588,5.588,0,0,0-4.184,1.8,6.008,6.008,0,0,0-1.76,4.384,6.241,6.241,0,0,0,.8,3.093,5.659,5.659,0,0,0,2.15,2.194,6.159,6.159,0,0,0,5.982,0,5.67,5.67,0,0,0,2.15-2.194,6.251,6.251,0,0,0,.8-3.093,5.994,5.994,0,0,0-1.767-4.383A5.6,5.6,0,0,0,745.364,368.5Z" transform="translate(221.619 -241.541)" fill="#feae47"></path><path id="Path_37" data-name="Path 37" d="M770.049,383.744v-8.766a19.551,19.551,0,0,0-.223-3.746,3.679,3.679,0,0,0-1.214-2.159,3.749,3.749,0,0,0-2.381-.7,4.669,4.669,0,0,0-3.106,1.15,5.483,5.483,0,0,0-1.841,2.886,21.011,21.011,0,0,0-.29,4.44v6.9h-3.545v-18.31h3.545v1.885l.476-.4a8.532,8.532,0,0,1,1.412-.972,7.821,7.821,0,0,1,3.783-.947,6.707,6.707,0,0,1,3.746,1.077,6.452,6.452,0,0,1,2.426,2.9,14.242,14.242,0,0,1,.756,5.362v9.4Z" transform="translate(220.687 -241.541)" fill="#feae47"></path><path id="Path_38" data-name="Path 38" d="M781.6,384.179a7.1,7.1,0,0,1-3.095-.705,6.77,6.77,0,0,1-2.451-1.956l-.347-.445,2.254-2.562.512.578a4.149,4.149,0,0,0,3.033,1.654,2.48,2.48,0,0,0,1.773-.663,1.928,1.928,0,0,0,.7-1.474,1.853,1.853,0,0,0-.452-1.23A8.778,8.778,0,0,0,781,375.742a9.351,9.351,0,0,1-3.366-2.546,5.09,5.09,0,0,1-.955-3.029,4.958,4.958,0,0,1,1.526-3.7,5.272,5.272,0,0,1,3.805-1.47,7.577,7.577,0,0,1,5.185,2.481l.491.474-2.352,2.431-.49-.476A4.426,4.426,0,0,0,781.9,368.4a1.908,1.908,0,0,0-1.357.52,1.5,1.5,0,0,0-.538,1.135,1.725,1.725,0,0,0,.466,1.136,7.921,7.921,0,0,0,2.41,1.622,10.3,10.3,0,0,1,3.542,2.628,5.13,5.13,0,0,1,.995,3.072,5.459,5.459,0,0,1-1.67,4.021A5.687,5.687,0,0,1,781.6,384.179Z" transform="translate(219.898 -241.541)" fill="#feae47"></path></g></g></svg> 